<?xml version="1.0" encoding="UTF-8"?>
<!DOCTYPE svg PUBLIC "-//W3C//DTD SVG 1.1//EN" "http://www.w3.org/Graphics/SVG/1.1/DTD/svg11.dtd">
<svg xmlns="http://www.w3.org/2000/svg" version="1.1" width="720px" height="954px" style="shape-rendering:geometricPrecision; text-rendering:geometricPrecision; image-rendering:optimizeQuality; fill-rule:evenodd; clip-rule:evenodd" xmlns:xlink="http://www.w3.org/1999/xlink">
<g><path style="opacity:0.996" fill="#110d1a" d="M 571.5,305.5 C 572.793,306.158 574.293,306.492 576,306.5C 581.785,306.256 587.285,305.256 592.5,303.5C 601.017,303.174 609.35,303.507 617.5,304.5C 616.448,304.351 615.448,304.517 614.5,305C 627.445,306.77 639.612,310.604 651,316.5C 651.399,316.272 651.565,315.938 651.5,315.5C 675.148,328.34 689.981,348.007 696,374.5C 703.563,419.579 693.563,460.245 666,496.5C 659.802,503.032 653.302,509.199 646.5,515C 639.808,519.098 632.642,521.931 625,523.5C 623.833,523.167 622.667,522.833 621.5,522.5C 616.486,504.633 607.486,489.133 594.5,476C 582.04,465.734 567.707,460.401 551.5,460C 544.264,475.425 539.097,491.592 536,508.5C 532.94,515.68 530.273,523.014 528,530.5C 523.257,548.308 518.757,566.141 514.5,584C 523.259,584.283 531.926,583.45 540.5,581.5C 539.981,609.049 526.315,625.882 499.5,632C 480.738,634.393 463.738,630.06 448.5,619C 432.942,607.452 421.109,592.952 413,575.5C 408.724,563.005 405.057,550.338 402,537.5C 401.333,524.5 401.333,511.5 402,498.5C 403.438,492.215 404.105,485.882 404,479.5C 401.772,477.887 399.272,477.22 396.5,477.5C 392.739,526.442 401.906,572.775 424,616.5C 429.231,625.066 435.231,633.066 442,640.5C 444.19,642.783 444.857,645.449 444,648.5C 421.828,671.338 398.995,693.505 375.5,715C 370.5,718.667 365.5,722.333 360.5,726C 358.212,726.418 356.212,725.751 354.5,724C 325.762,699.598 298.596,673.431 273,645.5C 272.333,644.167 272.333,642.833 273,641.5C 294.789,616.255 308.789,587.255 315,554.5C 307.64,582.422 292.474,604.922 269.5,622C 250.419,634.096 230.086,636.762 208.5,630C 189.043,620.27 179.377,604.437 179.5,582.5C 187.785,584.059 196.118,584.893 204.5,585C 200.106,568.258 195.94,551.424 192,534.5C 189.727,527.014 187.06,519.68 184,512.5C 179.934,494.473 174.767,476.806 168.5,459.5C 144.024,460.822 125.191,471.822 112,492.5C 106.541,502.25 102.041,512.416 98.5,523C 90.5551,523.466 83.2217,521.466 76.5,517C 56.3514,502.247 41.8514,483.08 33,459.5C 21.9377,433.458 18.6043,406.458 23,378.5C 31.0732,337.427 55.5732,312.594 96.5,304C 120.474,300.088 144.141,301.588 167.5,308.5C 168.167,308.167 168.833,307.833 169.5,307.5C 177.482,281.204 186.316,255.204 196,229.5C 199.667,221.5 203.333,213.5 207,205.5C 213.702,202.014 218.035,204.014 220,211.5C 221.197,219.438 221.864,227.438 222,235.5C 224.2,237.615 226.2,239.949 228,242.5C 231.141,249.196 232.141,256.196 231,263.5C 223.878,284.078 215.378,304.078 205.5,323.5C 249.734,351.623 282.567,389.623 304,437.5C 306.221,442.993 307.721,448.66 308.5,454.5C 311.836,454.533 315.003,453.866 318,452.5C 317.115,426.074 312.115,400.407 303,375.5C 294.727,358.621 286.727,341.621 279,324.5C 270.079,300.899 264.079,276.565 261,251.5C 260.568,235.659 263.234,220.325 269,205.5C 273.061,196.378 277.394,187.378 282,178.5C 308.243,134.52 333.076,89.6868 356.5,44C 358.81,43.5034 361.143,43.3367 363.5,43.5C 368.198,58.4135 374.364,72.7468 382,86.5C 399.162,116.829 416.829,146.829 435,176.5C 442.611,189.386 448.278,203.052 452,217.5C 454.123,230.092 454.79,242.759 454,255.5C 450.802,281.625 444.469,306.958 435,331.5C 426.221,349.838 418.221,368.505 411,387.5C 404.133,408.047 400.299,429.047 399.5,450.5C 403.01,451.566 406.51,452.566 410,453.5C 430.629,398.86 465.463,355.86 514.5,324.5C 506.392,306.617 498.558,288.617 491,270.5C 486.163,260.022 486.496,249.689 492,239.5C 493.378,237.787 495.045,236.453 497,235.5C 497.333,228.5 497.667,221.5 498,214.5C 498.849,209.597 501.016,205.43 504.5,202C 507.257,201.218 509.757,201.718 512,203.5C 515.667,211.5 519.333,219.5 523,227.5C 533.193,254.216 542.526,281.216 551,308.5C 553.401,309.602 555.901,309.769 558.5,309C 562.895,307.985 567.229,306.818 571.5,305.5 Z"/></g>
<g><path style="opacity:1" fill="#6b5e9b" d="M 358.5,53.5 C 365.332,68.1669 372.499,82.8336 380,97.5C 394.5,121.833 409,146.167 423.5,170.5C 422.998,171.521 422.332,171.688 421.5,171C 407.771,160.475 392.437,153.309 375.5,149.5C 375.953,145.307 377.119,141.307 379,137.5C 379.743,130.293 378.077,123.626 374,117.5C 369.05,110.216 363.717,103.216 358,96.5C 353,103.167 348,109.833 343,116.5C 335.634,127.301 334.8,138.468 340.5,150C 332.352,153.384 324.019,156.384 315.5,159C 308.25,162.539 301.417,166.706 295,171.5C 309.08,145.357 323.747,119.357 339,93.5C 345.786,80.2628 352.286,66.9295 358.5,53.5 Z"/></g>
<g><path style="opacity:1" fill="#fdfcfc" d="M 357.5,106.5 C 364.613,113.048 369.446,121.048 372,130.5C 371.209,137.868 370.209,145.202 369,152.5C 370.579,154.041 372.413,155.208 374.5,156C 397.286,161.137 416.452,172.303 432,189.5C 446.736,211.591 450.903,235.591 444.5,261.5C 435.767,249.595 426.101,238.429 415.5,228C 403.548,218.649 392.381,219.482 382,230.5C 379.473,234.221 377.473,238.221 376,242.5C 371.253,262.384 369.086,282.551 369.5,303C 369.671,313.842 370.004,324.676 370.5,335.5C 361.5,336.833 352.5,336.833 343.5,335.5C 345.195,313.777 344.695,292.111 342,270.5C 340.932,253.201 334.099,238.701 321.5,227C 314.473,223.718 307.473,223.718 300.5,227C 296.033,230.465 291.867,234.298 288,238.5C 281.836,246.825 276.169,255.492 271,264.5C 266.239,238.475 270.573,214.142 284,191.5C 294.53,178.975 307.363,169.475 322.5,163C 331.009,160.038 339.509,157.204 348,154.5C 348.667,153.167 348.667,151.833 348,150.5C 345.58,146.241 343.747,141.741 342.5,137C 345.253,125.662 350.253,115.495 357.5,106.5 Z"/></g>
<g><path style="opacity:1" fill="#f5f4f4" d="M 211.5,211.5 C 212.795,221.18 210.795,230.347 205.5,239C 204.207,239.49 202.873,239.657 201.5,239.5C 201.337,237.143 201.503,234.81 202,232.5C 205.195,225.448 208.362,218.448 211.5,211.5 Z"/></g>
<g><path style="opacity:1" fill="#f0efee" d="M 506.5,210.5 C 511.661,217.991 515.661,226.158 518.5,235C 518.046,236.622 517.046,237.788 515.5,238.5C 513.473,237.307 511.973,235.64 511,233.5C 507.926,226.12 506.426,218.454 506.5,210.5 Z"/></g>
<g><path style="opacity:1" fill="#6c5f9d" d="M 396.5,227.5 C 400.41,227.263 404.077,228.096 407.5,230C 419.488,241.841 430.654,254.341 441,267.5C 442.907,269.609 443.74,272.109 443.5,275C 441.08,286.515 438.58,298.015 436,309.5C 424.687,336.447 413.687,363.447 403,390.5C 398.076,409.618 394.243,428.952 391.5,448.5C 385.464,448.36 379.464,448.693 373.5,449.5C 370.171,418.286 367.504,386.953 365.5,355.5C 362.833,355.5 360.167,355.5 357.5,355.5C 355.323,387.822 353.323,420.155 351.5,452.5C 346.738,452.467 342.071,451.801 337.5,450.5C 333.524,451.164 329.524,451.497 325.5,451.5C 323.691,422.956 317.858,395.289 308,368.5C 299.984,351.802 291.984,335.136 284,318.5C 279.533,305.156 275.7,291.656 272.5,278C 278.972,261.85 288.305,247.517 300.5,235C 307.429,229.068 314.429,229.068 321.5,235C 329.854,246.881 335.021,260.047 337,274.5C 337.607,296.84 337.44,319.173 336.5,341.5C 350.5,341.5 364.5,341.5 378.5,341.5C 375.926,319.569 375.092,297.569 376,275.5C 376.685,261.805 380.018,248.805 386,236.5C 389.126,232.859 392.626,229.859 396.5,227.5 Z"/></g>
<g><path style="opacity:1" fill="#eabc8e" d="M 214.5,232.5 C 215.641,235.64 215.808,238.973 215,242.5C 203.691,255.788 193.357,269.788 184,284.5C 187.843,271.648 192.51,258.982 198,246.5C 207.627,246.707 213.127,242.04 214.5,232.5 Z"/></g>
<g><path style="opacity:1" fill="#62568a" d="M 505.5,237.5 C 505.5,239.167 505.5,240.833 505.5,242.5C 503.719,239.817 503.219,236.817 504,233.5C 505.188,234.563 505.688,235.897 505.5,237.5 Z"/></g>
<g><path style="opacity:1" fill="#eabc8d" d="M 505.5,237.5 C 506.977,239.807 508.977,241.64 511.5,243C 515.089,243.207 518.589,243.707 522,244.5C 526.735,257.539 531.568,270.539 536.5,283.5C 536.154,284.696 535.654,284.696 535,283.5C 526.079,269.094 516.245,255.427 505.5,242.5C 505.5,240.833 505.5,239.167 505.5,237.5 Z"/></g>
<g><path style="opacity:1" fill="#f0eeee" d="M 496.5,243.5 C 503.886,250.388 510.386,258.055 516,266.5C 517.009,268.025 517.509,269.692 517.5,271.5C 513.406,272.295 510.239,270.962 508,267.5C 502.255,260.346 498.422,252.346 496.5,243.5 Z"/></g>
<g><path style="opacity:1" fill="#f3f0ef" d="M 221.5,245.5 C 222.559,247.726 222.392,250.059 221,252.5C 217.363,259.61 212.863,266.11 207.5,272C 203.992,274.371 202.159,273.537 202,269.5C 208.269,261.286 214.769,253.286 221.5,245.5 Z"/></g>
<g><path style="opacity:1" fill="#f5c391" d="M 322.5,458.5 C 323.791,458.263 324.791,458.596 325.5,459.5C 316.6,462.232 310.934,468.066 308.5,477C 289.65,487.176 272.483,499.676 257,514.5C 248.865,531.318 246.365,548.985 249.5,567.5C 247.132,575.704 241.799,581.204 233.5,584C 226.314,586.028 218.98,586.861 211.5,586.5C 206.908,569.618 202.741,552.618 199,535.5C 196.458,525.874 193.125,516.541 189,507.5C 187.62,499.025 185.62,490.691 183,482.5C 173.667,457.167 164.333,431.833 155,406.5C 150.703,394.064 149.703,381.397 152,368.5C 161.408,334.686 176.408,303.686 197,275.5C 201.997,280.496 207.163,280.663 212.5,276C 217.035,270.431 221.201,264.597 225,258.5C 225.167,259 225.333,259.5 225.5,260C 222.09,270.322 218.256,280.488 214,290.5C 203.272,312.956 192.272,335.29 181,357.5C 178.673,362.314 176.84,367.314 175.5,372.5C 189.482,409.627 210.149,442.46 237.5,471C 241.356,473.842 245.69,475.509 250.5,476C 257.556,476.788 264.556,476.455 271.5,475C 288.651,469.636 305.651,464.136 322.5,458.5 Z"/></g>
<g><path style="opacity:1" fill="#f4c391" d="M 493.5,255.5 C 497.532,262.374 502.199,268.874 507.5,275C 512.462,278.423 517.295,278.256 522,274.5C 542.048,302.263 557.048,332.596 567,365.5C 569.504,380.158 568.171,394.491 563,408.5C 554,432.833 545,457.167 536,481.5C 533.494,489.358 531.494,497.358 530,505.5C 520.979,529.917 513.979,554.917 509,580.5C 508.011,584.255 505.511,585.922 501.5,585.5C 489.114,585.543 478.947,580.877 471,571.5C 470.812,557.805 470.145,544.138 469,530.5C 467.788,524.075 465.455,518.075 462,512.5C 456.761,506.59 450.928,501.423 444.5,497C 437.324,492.245 430.324,487.245 423.5,482C 419.5,480 415.5,478 411.5,476C 410.042,472.087 408.042,468.421 405.5,465C 399.112,461.139 392.446,457.806 385.5,455C 391.255,455.185 396.922,456.185 402.5,458C 416.683,463.394 431.016,468.394 445.5,473C 463.495,478.537 478.661,474.37 491,460.5C 511.762,435.341 528.762,407.675 542,377.5C 543.368,374.262 543.701,370.928 543,367.5C 529.349,338.864 515.683,310.197 502,281.5C 498.261,273.117 495.428,264.45 493.5,255.5 Z"/></g>
<g><path style="opacity:1" fill="#463d63" d="M 592.5,303.5 C 587.285,305.256 581.785,306.256 576,306.5C 574.293,306.492 572.793,306.158 571.5,305.5C 578.38,303.841 585.38,303.175 592.5,303.5 Z"/></g>
<g><path style="opacity:1" fill="#3b3353" d="M 617.5,304.5 C 629.861,305.415 641.195,309.081 651.5,315.5C 651.565,315.938 651.399,316.272 651,316.5C 639.612,310.604 627.445,306.77 614.5,305C 615.448,304.517 616.448,304.351 617.5,304.5 Z"/></g>
<g><path style="opacity:1" fill="#6c5f9d" d="M 107.5,308.5 C 127.249,307.62 146.583,309.953 165.5,315.5C 159.179,329.297 153.345,343.297 148,357.5C 144.362,370.016 143.695,382.682 146,395.5C 148.311,402.746 150.311,410.079 152,417.5C 156.988,428.961 161.488,440.628 165.5,452.5C 139.514,455.07 119.68,467.403 106,489.5C 100.922,497.657 96.9219,506.324 94,515.5C 93.2753,516.059 92.4419,516.392 91.5,516.5C 79.833,511.737 69.9997,504.404 62,494.5C 46.9455,476.723 36.9455,456.39 32,433.5C 28.2257,414.948 27.559,396.281 30,377.5C 36.1765,348.66 52.6765,328.16 79.5,316C 88.7986,312.915 98.1319,310.415 107.5,308.5 Z"/></g>
<g><path style="opacity:1" fill="#6c5f9d" d="M 589.5,310.5 C 660.171,309.337 694.338,344.004 692,414.5C 688.182,451.971 672.349,483.138 644.5,508C 639.112,511.361 633.446,514.194 627.5,516.5C 623.357,506.624 618.523,496.958 613,487.5C 598.306,465.734 577.806,454.234 551.5,453C 560.261,435.131 567.427,416.631 573,397.5C 575.387,383.685 574.721,370.019 571,356.5C 566.904,343.04 561.738,330.04 555.5,317.5C 556.665,316.416 557.998,315.583 559.5,315C 569.685,313.808 579.685,312.308 589.5,310.5 Z"/></g>
<g><path style="opacity:1" fill="#6c5f9d" d="M 200.5,330.5 C 203.721,331.111 206.721,332.278 209.5,334C 254.766,365.084 286.099,406.584 303.5,458.5C 291.351,462.907 279.017,466.74 266.5,470C 257.319,471.483 248.652,470.15 240.5,466C 222.175,446.188 206.675,424.354 194,400.5C 189.735,391.203 185.568,381.869 181.5,372.5C 187.842,358.483 194.176,344.483 200.5,330.5 Z"/></g>
<g><path style="opacity:1" fill="#6c5f9d" d="M 517.5,331.5 C 519.796,333.401 521.629,335.734 523,338.5C 527.273,346.712 531.273,355.045 535,363.5C 536.434,367.406 536.767,371.406 536,375.5C 521.846,409.014 502.346,438.848 477.5,465C 468.799,468.319 459.799,469.319 450.5,468C 439.588,465.196 428.921,461.696 418.5,457.5C 417.359,455.579 417.192,453.579 418,451.5C 435.324,408.053 462.491,371.886 499.5,343C 505.406,338.909 511.406,335.076 517.5,331.5 Z"/></g>
<g><path style="opacity:1" fill="#120e1b" d="M 623.5,354.5 C 627.743,361.106 632.076,367.772 636.5,374.5C 642.964,375.395 649.297,376.895 655.5,379C 650.107,381.726 645.274,385.226 641,389.5C 640.664,393.001 640.831,396.501 641.5,400C 641.891,403.134 640.891,405.634 638.5,407.5C 635.399,405.902 632.732,403.735 630.5,401C 628.305,399.627 625.971,399.294 623.5,400C 620.833,402.333 618.167,404.667 615.5,407C 609.691,406.041 608.524,403.208 612,398.5C 613.124,395.558 613.458,392.558 613,389.5C 609.492,387.413 606.158,385.08 603,382.5C 602.505,380.527 602.338,378.527 602.5,376.5C 607.256,375.929 611.923,374.929 616.5,373.5C 619.037,367.22 621.37,360.887 623.5,354.5 Z"/></g>
<g><path style="opacity:1" fill="#120e1b" d="M 86.5,358.5 C 88.371,358.859 89.871,359.859 91,361.5C 93.7072,366.416 96.5406,371.249 99.5,376C 105.825,377.81 112.158,379.476 118.5,381C 114,384.167 109.5,387.333 105,390.5C 104.708,395.055 105.208,399.555 106.5,404C 106.415,405.107 106.081,406.107 105.5,407C 103.5,407.667 101.5,407.667 99.5,407C 96.5972,404.428 93.4306,402.261 90,400.5C 86.0392,402.957 82.2059,405.624 78.5,408.5C 75.8248,407.652 74.4914,405.818 74.5,403C 75.8425,399.193 76.6758,395.36 77,391.5C 73.7443,389.121 70.2443,387.121 66.5,385.5C 65.52,382.914 65.1866,380.247 65.5,377.5C 70.5,377.5 75.5,377.5 80.5,377.5C 82.4959,371.178 84.4959,364.845 86.5,358.5 Z"/></g>
<g><path style="opacity:1" fill="#f5f3f2" d="M 624.5,369.5 C 625.376,369.369 626.043,369.702 626.5,370.5C 628.039,373.746 629.706,376.912 631.5,380C 639.442,379.899 640.275,382.066 634,386.5C 633.667,389.167 633.333,391.833 633,394.5C 630.75,393.292 628.583,391.959 626.5,390.5C 624.578,391.711 622.745,393.044 621,394.5C 621.438,391.801 621.272,389.135 620.5,386.5C 618.46,384.823 616.46,383.156 614.5,381.5C 621.07,380.431 624.403,376.431 624.5,369.5 Z"/></g>
<g><path style="opacity:1" fill="#f4f2f2" d="M 88.5,372.5 C 91.1783,375.332 93.5116,378.499 95.5,382C 103.442,381.899 104.275,384.066 98,388.5C 97.6667,391.167 97.3333,393.833 97,396.5C 95.0233,395.095 92.8566,394.095 90.5,393.5C 88.0327,394.421 85.6994,395.255 83.5,396C 84.2401,394.215 84.9067,392.382 85.5,390.5C 83.4231,387.626 80.7564,385.459 77.5,384C 80.3303,383.131 82.997,381.964 85.5,380.5C 86.5134,377.812 87.5134,375.146 88.5,372.5 Z"/></g>
<g><path style="opacity:1" fill="#a59893" d="M 362.5,401.5 C 361.833,402.833 361.167,404.167 360.5,405.5C 360.125,402.603 360.625,399.937 362,397.5C 362.49,398.793 362.657,400.127 362.5,401.5 Z"/></g>
<g><path style="opacity:1" fill="#f7f6f5" d="M 362.5,401.5 C 363.893,416.82 365.226,432.153 366.5,447.5C 364.723,453.724 365.223,459.724 368,465.5C 370.547,482.087 371.547,498.754 371,515.5C 368.159,535.246 364.992,554.913 361.5,574.5C 357.928,551.587 354.928,528.587 352.5,505.5C 355.32,472.174 357.987,438.841 360.5,405.5C 361.167,404.167 361.833,402.833 362.5,401.5 Z"/></g>
<g><path style="opacity:1" fill="#64578f" d="M 325.5,459.5 C 324.791,458.596 323.791,458.263 322.5,458.5C 322.918,457.778 323.584,457.278 324.5,457C 334.473,456.092 334.807,456.925 325.5,459.5 Z"/></g>
<g><path style="opacity:1" fill="#eeeded" d="M 372.5,459.5 C 372.917,458.876 373.584,458.543 374.5,458.5C 380.601,460.034 386.601,461.867 392.5,464C 396.183,465.841 399.516,468.174 402.5,471C 400.5,471.667 398.5,471.667 396.5,471C 388.321,467.409 380.321,463.576 372.5,459.5 Z"/></g>
<g><path style="opacity:1" fill="#e9e7e7" d="M 343.5,459.5 C 344.873,459.343 346.207,459.51 347.5,460C 338.15,466.846 327.817,471.18 316.5,473C 324.498,466.334 333.498,461.834 343.5,459.5 Z"/></g>
<g><path style="opacity:1" fill="#6c5f9d" d="M 345.5,468.5 C 346.5,468.5 347.5,468.5 348.5,468.5C 348.36,483.553 347.86,498.553 347,513.5C 350.257,543.225 353.924,572.891 358,602.5C 359.884,604.576 362.051,604.91 364.5,603.5C 368.774,573.208 372.941,542.874 377,512.5C 376.998,497.819 376.665,483.152 376,468.5C 380.62,470.31 384.954,472.643 389,475.5C 388.31,509.042 391.977,542.042 400,574.5C 407.569,600.807 419.736,624.64 436.5,646C 412.848,672.491 387.181,696.657 359.5,718.5C 331.177,696.018 304.844,671.184 280.5,644C 298.1,622.972 310.6,599.138 318,572.5C 326.178,541.047 329.345,509.047 327.5,476.5C 334.06,474.882 340.06,472.216 345.5,468.5 Z"/></g>
<g><path style="opacity:1" fill="#f2efed" d="M 316.5,479.5 C 320.375,478.874 322.209,480.541 322,484.5C 322.565,495.258 321.898,505.925 320,516.5C 319.333,514.5 318.667,512.5 318,510.5C 317.377,501.811 316.543,493.144 315.5,484.5C 315.728,482.793 316.062,481.126 316.5,479.5 Z"/></g>
<g><path style="opacity:1" fill="#6c5f9c" d="M 308.5,483.5 C 318.586,522.921 312.086,559.588 289,593.5C 278.101,608.52 263.935,619.02 246.5,625C 230.851,629.899 216.185,627.899 202.5,619C 195.429,612.34 190.262,604.507 187,595.5C 186.202,593.741 186.369,592.074 187.5,590.5C 205.487,595.214 223.153,594.381 240.5,588C 252.969,581.261 260.135,570.761 262,556.5C 262.904,545.705 262.071,535.039 259.5,524.5C 259.577,522.701 260.077,521.034 261,519.5C 275.315,505.332 291.148,493.332 308.5,483.5 Z"/></g>
<g><path style="opacity:1" fill="#6c5f9c" d="M 411.5,483.5 C 428.783,492.267 444.283,503.601 458,517.5C 459.552,519.768 460.385,522.268 460.5,525C 451.054,575.89 472.054,597.89 523.5,591C 526.827,590.39 530.161,589.89 533.5,589.5C 528.559,613.754 513.559,626.087 488.5,626.5C 466.648,624.323 448.815,614.656 435,597.5C 416.302,574.076 407.135,547.242 407.5,517C 407.667,511.167 407.833,505.333 408,499.5C 409.305,494.205 410.471,488.872 411.5,483.5 Z"/></g>
<g><path style="opacity:1" fill="#dfd7d2" d="M 256.5,554.5 C 255.732,555.263 255.232,556.263 255,557.5C 254.802,555.618 254.302,553.952 253.5,552.5C 253.335,549.15 253.502,545.817 254,542.5C 254.419,541.328 255.085,540.328 256,539.5C 256.499,544.489 256.666,549.489 256.5,554.5 Z"/></g>
<g><path style="opacity:1" fill="#e1dede" d="M 463.5,541.5 C 465.815,546.268 465.981,551.268 464,556.5C 462.176,551.598 462.009,546.598 463.5,541.5 Z"/></g>
<g><path style="opacity:1" fill="#685c97" d="M 253.5,552.5 C 254.302,553.952 254.802,555.618 255,557.5C 255.232,556.263 255.732,555.263 256.5,554.5C 256.884,556.665 256.217,558.332 254.5,559.5C 253.526,557.257 253.192,554.924 253.5,552.5 Z"/></g>
</svg>
