<svg width="23" height="22" viewBox="0 0 23 22" fill="none" xmlns="http://www.w3.org/2000/svg">
<g clip-path="url(#clip0_22:19448)">
<path d="M3.51831 2.5962C3.51769 2.5962 3.51699 2.5962 3.51637 2.5962C3.29884 2.5962 3.09424 2.67731 2.93975 2.82472C2.78355 2.97376 2.69751 3.1722 2.69751 3.38346V15.1883C2.69751 15.6212 3.06714 15.9742 3.52156 15.9754C5.43731 15.9797 8.64694 16.3617 10.8611 18.578V6.22392C10.8611 6.07718 10.822 5.93933 10.748 5.82525C8.93068 3.02583 5.43839 2.6005 3.51831 2.5962Z" fill="#EBF5EE"/>
<path d="M20.3026 15.1883V3.38342C20.3026 3.17216 20.2165 2.97372 20.0603 2.82468C19.9058 2.67727 19.7011 2.59616 19.4838 2.59616C19.4831 2.59616 19.4824 2.59616 19.4818 2.59616C17.5618 2.60053 14.0695 3.02587 12.2521 5.82528C12.1781 5.93936 12.139 6.07721 12.139 6.22395V18.578C14.3532 16.3616 17.5629 15.9797 19.4786 15.9753C19.9329 15.9742 20.3026 15.6212 20.3026 15.1883Z" fill="#EBF5EE"/>
<path d="M22.1771 5.31863H21.5803V15.1884C21.5803 16.2936 20.6389 17.1949 19.4816 17.1976C17.8567 17.2013 15.1773 17.5053 13.2798 19.2231C16.5616 18.4545 20.0212 18.9542 21.9929 19.3839C22.2391 19.4376 22.4935 19.3822 22.6907 19.2318C22.8872 19.0818 23 18.8576 23 18.6169V6.10574C23.0001 5.67174 22.6308 5.31863 22.1771 5.31863Z" fill="#EBF5EE"/>
<path d="M1.41965 15.1884V5.31863H0.822892C0.36924 5.31863 0 5.67174 0 6.10574V18.6167C0 18.8574 0.112755 19.0816 0.309301 19.2316C0.506389 19.3819 0.760552 19.4375 1.00712 19.3837C2.97878 18.9539 6.43847 18.4543 9.72013 19.2229C7.82266 17.5051 5.14334 17.2013 3.51839 17.1976C2.36119 17.1949 1.41965 16.2936 1.41965 15.1884Z" fill="#EBF5EE"/>
</g>
<defs>
<clipPath id="clip0_22:19448">
<rect width="23" height="22" fill="#EBF5EE"/>
</clipPath>
</defs>
</svg>
