<svg xmlns="http://www.w3.org/2000/svg" viewBox="0 0 24 24">
  <path d="M4 2C3.466 2 2.9629375 2.2079375 2.5859375 2.5859375C2.2079375 2.9639375 2 3.467 2 4L2 7C2 9.9420354 3.8300481 12.454406 6.4082031 13.486328C6.7620442 14.101886 7.32167 14.575434 8 14.816406L8 18C8 20.206 9.794 22 12 22L16 22C18.206 22 20 20.206 20 18L20 17.816406C21.162838 17.403316 22 16.304625 22 15C22 13.343 20.657 12 19 12C17.343 12 16 13.343 16 15C16 16.304625 16.837162 17.403316 18 17.816406L18 18C18 19.103 17.103 20 16 20L12 20C10.897 20 10 19.103 10 18L10 14.816406C10.67833 14.575434 11.237956 14.101886 11.591797 13.486328C14.169952 12.453453 16 9.9369908 16 6.9765625L16 4C16 2.897 15.103 2 14 2L12 2L12 4L14 4L14 7C14 9.757 11.757 12 9 12C6.243 12 4.0009531 9.7565625 4.0019531 6.9765625L4 4L6 4L6 2L4 2 z M 19 13.75C19.69 13.75 20.25 14.31 20.25 15C20.25 15.69 19.69 16.25 19 16.25C18.31 16.25 17.75 15.69 17.75 15C17.75 14.31 18.31 13.75 19 13.75 z" fill="#174C44" />
</svg>