<?xml version="1.0" encoding="UTF-8" standalone="no"?><!DOCTYPE svg PUBLIC "-//W3C//DTD SVG 1.1//EN" "http://www.w3.org/Graphics/SVG/1.1/DTD/svg11.dtd"><svg width="100%" height="100%" viewBox="0 0 720 720" version="1.1" xmlns="http://www.w3.org/2000/svg" xmlns:xlink="http://www.w3.org/1999/xlink" xml:space="preserve" xmlns:serif="http://www.serif.com/" style="fill-rule:evenodd;clip-rule:evenodd;stroke-linecap:round;stroke-linejoin:round;stroke-miterlimit:1.5;"><circle cx="360" cy="360" r="360" style="fill:#ebf5ee;stroke:#174c44;stroke-width:24px;"/><path d="M360,123.158c-69.364,0 -126,56.636 -126,126c0,69.364 56.636,126 126,126c69.364,0 126,-56.636 126,-126c0,-69.364 -56.636,-126 -126,-126Zm-144.9,302.4c-31.091,-0 -56.7,25.61 -56.7,56.7l0,15.111c0,37.054 23.495,70.292 59.333,93.146c35.838,22.854 84.872,36.643 142.267,36.643c57.395,0 106.429,-13.789 142.267,-36.643c35.838,-22.854 59.333,-56.092 59.333,-93.146l0,-15.111c0,-31.09 -25.61,-56.7 -56.7,-56.7l-289.8,0Z" style="fill:#174c44;fill-rule:nonzero;"/></svg>